<?xml version="1.0" encoding="UTF-8" standalone="no"?>
<svg width="45px" height="45px" viewBox="0 0 45 45" version="1.1" xmlns="http://www.w3.org/2000/svg" xmlns:xlink="http://www.w3.org/1999/xlink">
    <!-- Generator: Sketch 40.3 (33839) - http://www.bohemiancoding.com/sketch -->
    <title>PWI_Logo</title>
    <desc>Created with Sketch.</desc>
    <defs>
        <polyline id="path-1" points="0 0.11859375 44.8814062 0.11859375 44.8814062 45 0 45"></polyline>
        <polygon id="path-3" points="0 0.11859375 44.8814062 0.11859375 44.8814062 45 0 45"></polygon>
    </defs>
    <g id="Assets" stroke="none" stroke-width="1" fill="none" fill-rule="evenodd">
        <g id="PWI_Logo">
            <g id="PWI-LOGO">
                <g id="Group-3">
                    <mask id="mask-2" fill="white">
                        <use xlink:href="#path-1"></use>
                    </mask>
                    <g id="Clip-2"></g>
                    <path d="M44.8813828,22.5593203 C44.8813828,34.9530703 34.8344297,45.0000234 22.4406797,45.0000234 C10.0471641,45.0000234 -2.34375002e-05,34.9530703 -2.34375002e-05,22.5593203 C-2.34375002e-05,10.1655703 10.0471641,0.118617187 22.4406797,0.118617187 C34.8344297,0.118617187 44.8813828,10.1655703 44.8813828,22.5593203" id="Fill-1" fill="#33AEF4" mask="url(#mask-2)"></path>
                </g>
                <path d="M14.2387031,23.2181484 L11.6033906,23.2181484 L11.6033906,19.2651797 L14.2387031,19.2651797 C15.3304219,19.2651797 16.2151875,20.1499453 16.2151875,21.2416641 C16.2151875,22.3331484 15.3304219,23.2181484 14.2387031,23.2181484 L14.2387031,23.2181484 Z M28.73925,23.6374453 L26.836125,16.6296328 L26.8330781,16.6296328 L24.2005781,16.6296328 L24.1975312,16.6296328 L22.2927656,23.6430703 L20.388,16.6296328 L17.7524531,16.6296328 L18.5894062,19.7111953 C17.9582344,17.9165859 16.2491719,16.6296328 14.2387031,16.6296328 L11.6033906,16.6296328 L8.96784375,16.6296328 L8.96784375,28.4890078 L11.6033906,28.4890078 L11.6033906,25.8534609 L14.2387031,25.8534609 C16.7858906,25.8534609 18.8505,23.7886172 18.8505,21.2416641 C18.8505,20.9390859 18.8205,20.6437734 18.7649531,20.3573672 L20.9734687,28.4890078 L20.9765156,28.4890078 L23.6090156,28.4890078 L23.6120625,28.4890078 L25.5168281,21.4755703 L27.4215937,28.4890078 L30.0571406,28.4890078 L33.2781562,16.6296328 L30.6426094,16.6296328 L28.73925,23.6374453 Z" id="Fill-4" fill="#FFFFFF"></path>
                <mask id="mask-4" fill="white">
                    <use xlink:href="#path-3"></use>
                </mask>
                <g id="Clip-7"></g>
                <polygon id="Fill-6" fill="#FFFFFF" mask="url(#mask-4)" points="33.2779687 28.4889844 35.9132812 28.4889844 35.9132812 16.6298437 33.2779687 16.6298437"></polygon>
            </g>
        </g>
    </g>
</svg>